<svg width="96" height="96" viewBox="0 0 96 96" fill="none" xmlns="http://www.w3.org/2000/svg">
<rect width="96" height="96" fill="#FEE34A"/>
<path d="M16.2869 56V52.9659L22.6534 47.392C23.1307 46.9602 23.5369 46.5653 23.8722 46.2074C24.2074 45.8437 24.4631 45.4801 24.6392 45.1165C24.8153 44.7472 24.9034 44.3466 24.9034 43.9148C24.9034 43.4318 24.7983 43.0199 24.5881 42.679C24.3778 42.3324 24.0881 42.0653 23.7188 41.8778C23.3494 41.6903 22.9261 41.5966 22.4489 41.5966C21.9659 41.5966 21.5426 41.696 21.179 41.8949C20.8153 42.0881 20.5313 42.3693 20.3267 42.7386C20.1278 43.108 20.0284 43.5568 20.0284 44.0852H16.0312C16.0312 42.8977 16.2983 41.8722 16.8324 41.0085C17.3665 40.1449 18.1165 39.4801 19.0824 39.0142C20.054 38.5426 21.1818 38.3068 22.4659 38.3068C23.7898 38.3068 24.9403 38.5284 25.9176 38.9716C26.8949 39.4148 27.6506 40.0341 28.1847 40.8295C28.7244 41.6193 28.9943 42.5369 28.9943 43.5824C28.9943 44.2472 28.8608 44.9062 28.5938 45.5597C28.3267 46.2131 27.8466 46.9347 27.1534 47.7244C26.4659 48.5142 25.4886 49.4602 24.2216 50.5625L22.1335 52.4886V52.5994H29.2074V56H16.2869ZM38.8104 56.4261C37.2876 56.4261 35.9751 56.0653 34.8729 55.3438C33.7706 54.6165 32.9212 53.5739 32.3246 52.2159C31.728 50.8523 31.4325 49.2131 31.4382 47.2983C31.4439 45.3835 31.7422 43.7585 32.3331 42.4233C32.9297 41.0824 33.7763 40.0625 34.8729 39.3636C35.9751 38.6591 37.2876 38.3068 38.8104 38.3068C40.3331 38.3068 41.6456 38.6591 42.7479 39.3636C43.8558 40.0625 44.7081 41.0824 45.3047 42.4233C45.9013 43.7642 46.1967 45.3892 46.1911 47.2983C46.1911 49.2187 45.8928 50.8608 45.2962 52.2244C44.6996 53.5881 43.8501 54.6307 42.7479 55.3523C41.6513 56.0682 40.3388 56.4261 38.8104 56.4261ZM38.8104 52.9744C39.7195 52.9744 40.4553 52.5114 41.0178 51.5852C41.5803 50.6534 41.8587 49.2244 41.853 47.2983C41.853 46.0369 41.7251 44.9972 41.4695 44.179C41.2138 43.3551 40.8587 42.7415 40.4041 42.3381C39.9496 41.9347 39.4183 41.733 38.8104 41.733C37.907 41.733 37.1768 42.1903 36.62 43.1051C36.0632 44.0142 35.782 45.4119 35.7763 47.2983C35.7706 48.5767 35.8928 49.6364 36.1428 50.4773C36.3984 51.3182 36.7564 51.946 37.2166 52.3608C37.6768 52.7699 38.2081 52.9744 38.8104 52.9744ZM48.3942 53.1023V49.8125L55.5447 38.5455H58.468V43.0114H56.772L52.5874 49.642V49.7784H62.9425V53.1023H48.3942ZM56.8232 56V52.0966L56.9084 50.6562V38.5455H60.8544V56H56.8232ZM71.9723 56.2386C70.6143 56.2386 69.4013 56.0227 68.3331 55.5909C67.2706 55.1534 66.4354 54.5625 65.8274 53.8182C65.2251 53.0682 64.924 52.2216 64.924 51.2784C64.924 50.5568 65.0973 49.8949 65.4439 49.2926C65.7905 48.6903 66.2592 48.1903 66.8501 47.7926C67.4467 47.3892 68.1115 47.1307 68.8445 47.017V46.8807C67.8842 46.7045 67.0973 46.2585 66.4837 45.5426C65.8757 44.8267 65.5717 43.9886 65.5717 43.0284C65.5717 42.1193 65.8473 41.3097 66.3984 40.5994C66.9553 39.8892 67.7138 39.3295 68.674 38.9205C69.6399 38.5114 70.7393 38.3068 71.9723 38.3068C73.2053 38.3068 74.3018 38.5114 75.2621 38.9205C76.228 39.3295 76.9865 39.8892 77.5376 40.5994C78.0945 41.3097 78.3729 42.1193 78.3729 43.0284C78.3729 43.9943 78.0632 44.8352 77.4439 45.5511C76.8303 46.2614 76.049 46.7045 75.1001 46.8807V47.017C75.8274 47.1307 76.4865 47.3892 77.0774 47.7926C77.674 48.1903 78.1456 48.6903 78.4922 49.2926C78.8445 49.8949 79.0206 50.5568 79.0206 51.2784C79.0206 52.2216 78.7166 53.0682 78.1087 53.8182C77.5007 54.5625 76.6655 55.1534 75.603 55.5909C74.5462 56.0227 73.3359 56.2386 71.9723 56.2386ZM71.9723 53.2472C72.4893 53.2472 72.9439 53.1506 73.3359 52.9574C73.728 52.7585 74.0348 52.483 74.2564 52.1307C74.4837 51.7784 74.5973 51.3807 74.5973 50.9375C74.5973 50.483 74.4837 50.0795 74.2564 49.7273C74.0291 49.375 73.7166 49.0994 73.3189 48.9006C72.9268 48.696 72.478 48.5938 71.9723 48.5938C71.4723 48.5938 71.0234 48.696 70.6257 48.9006C70.228 49.0994 69.9155 49.375 69.6882 49.7273C69.4609 50.0795 69.3473 50.483 69.3473 50.9375C69.3473 51.3807 69.4581 51.7784 69.6797 52.1307C69.907 52.4773 70.2166 52.75 70.6087 52.9489C71.0064 53.1477 71.4609 53.2472 71.9723 53.2472ZM71.9723 45.6193C72.4155 45.6193 72.8075 45.5284 73.1484 45.3466C73.495 45.1648 73.7649 44.9119 73.9581 44.5881C74.157 44.2642 74.2564 43.8977 74.2564 43.4886C74.2564 43.0795 74.157 42.7188 73.9581 42.4062C73.7649 42.0938 73.4979 41.8494 73.157 41.6733C72.8161 41.4915 72.4212 41.4006 71.9723 41.4006C71.5291 41.4006 71.1342 41.4915 70.7876 41.6733C70.4411 41.8494 70.1712 42.0938 69.978 42.4062C69.7848 42.7188 69.6882 43.0795 69.6882 43.4886C69.6882 43.8977 69.7848 44.2642 69.978 44.5881C70.1768 44.9062 70.4496 45.1591 70.7962 45.3466C71.1428 45.5284 71.5348 45.6193 71.9723 45.6193Z" fill="black"/>
</svg>
